<svg xmlns="http://www.w3.org/2000/svg" viewBox="0 0 543.75 163.14"><defs><style>.cls-1{fill:#fff;stroke:#fff;stroke-miterlimit:10;stroke-width:0.75px;}</style></defs><title>horizontal_negativo</title><g id="Capa_2" data-name="Capa 2"><g id="Capa_1-2" data-name="Capa 1"><path class="cls-1" d="M62.84,160.1a1.25,1.25,0,0,1-.85-2.18l32.78-30a8.19,8.19,0,0,0,0-12.06L67.17,90.54a10.69,10.69,0,0,1,0-15.75L94.77,49.5a8.17,8.17,0,0,0,0-12L62,7.41a1.24,1.24,0,0,1-.07-1.76,1.25,1.25,0,0,1,1.77-.08l32.77,30a10.67,10.67,0,0,1,0,15.75L68.86,76.64a8.17,8.17,0,0,0,0,12L96.46,114a10.67,10.67,0,0,1,0,15.75l-13.8,12.65-19,17.39A1.24,1.24,0,0,1,62.84,160.1Z"/><path class="cls-1" d="M102.67,159.76l-3.21.84a1.39,1.39,0,0,1-.27-.21l-2.54-2.32L66.51,130.45a11.65,11.65,0,0,1,0-17.18L94.11,88a7.18,7.18,0,0,0,0-10.61L66.51,52.07a11.66,11.66,0,0,1,0-17.19L94.41,9.32l.91-.83,3.86-3.55a2.25,2.25,0,0,1,3.15.14,1.66,1.66,0,0,1,.23.31,3.54,3.54,0,0,1,.07.73,2.35,2.35,0,0,1,0,.26,2.11,2.11,0,0,1,0,.26,1.85,1.85,0,0,1,0,.23l-.06.27a1.09,1.09,0,0,1,0,.17c0,.1-.07.21-.11.31l0,.12a.82.82,0,0,1-.09.19.82.82,0,0,1-.12.2,3.19,3.19,0,0,1-.35.47c-.14.16-.29.31-.44.46h0l-.47.44-1.1,1L69.52,38.16a7.23,7.23,0,0,0,0,10.63l27.6,25.28a11.66,11.66,0,0,1,0,17.19l-27.6,25.29a7.22,7.22,0,0,0,0,10.62l32.41,29.69.27.25A2.22,2.22,0,0,1,102.67,159.76Z"/><path class="cls-1" d="M160.58,83.8l0,1.8c0,.59,0,1.19-.07,1.79a76.53,76.53,0,0,1-2,14.19,79.61,79.61,0,0,1-20.64,37.35,79.91,79.91,0,0,1-35.16,20.83c-.67.19-1.34.37-2,.54-.39.11-.79.21-1.19.3A80.65,80.65,0,0,1,5.81,111.21a81.3,81.3,0,0,1,6.08-71,80.32,80.32,0,0,1,8.72-12A82.21,82.21,0,0,1,57.46,4.19,80.22,80.22,0,0,1,72,1C73.23.84,74.48.77,75.71.65c.62,0,1.24-.11,1.86-.14L79.44.45A71.42,71.42,0,0,1,86.9.5,81.55,81.55,0,0,1,99.33,2.15l.18,0a4,4,0,0,1,3,3.21,3.54,3.54,0,0,1,.07.73,2.35,2.35,0,0,1,0,.26,2.11,2.11,0,0,1,0,.26,1.85,1.85,0,0,1,0,.23l-.06.27a1.09,1.09,0,0,1,0,.17,1.92,1.92,0,0,1-.11.31l0,.12a.82.82,0,0,1-.09.19.82.82,0,0,1-.12.2,3.19,3.19,0,0,1-.35.47c-.14.16-.29.31-.44.46h0l-.47.44-1.1,1-1.39-.35-1.26-.29c-.88-.2-1.77-.38-2.65-.54a77.25,77.25,0,0,0-8-1,66.46,66.46,0,0,0-6.77-.17l-1.69,0c-.56,0-1.13.07-1.69.1-1.13.09-2.25.12-3.37.28A73.3,73.3,0,0,0,59.6,11.18,75.12,75.12,0,0,0,11.15,55.72,76,76,0,0,0,5.92,82.48a76.74,76.74,0,0,0,4.61,27,75.66,75.66,0,0,0,14,23.63,76.52,76.52,0,0,0,34.22,22.67,75.69,75.69,0,0,0,13.54,3,77.44,77.44,0,0,0,24.4-.68c1.1-.21,2.2-.45,3.29-.71.66-.15,1.32-.32,2-.5a76.77,76.77,0,0,0,23.46-10.68,77.42,77.42,0,0,0,31.61-45,74.26,74.26,0,0,0,2.22-13.91c.07-.58.08-1.17.1-1.76l.06-1.76c.07-1.18,0-2.36,0-3.54l0-1.76c0-.59-.08-1.18-.12-1.76L159.09,75l-.07-.88-.11-.87a74.43,74.43,0,0,0-2.85-13.84,78.91,78.91,0,0,0-5.3-13.13,80,80,0,0,0-17.28-22.36,78,78,0,0,1,23.3,35.26,74.86,74.86,0,0,1,3.13,14L160,74l.08.89.17,1.79c.05.59.11,1.18.15,1.78l.07,1.79C160.54,81.42,160.62,82.61,160.58,83.8Z"/><path class="cls-1" d="M235,128.64l-16.45-13.71a6.31,6.31,0,0,1-.21-9.46l14.16-13a.8.8,0,0,0,0-1.18l-14.17-13a6.29,6.29,0,0,1,.19-9.44l16.33-13.76,7.68.11L222.09,73a.85.85,0,0,0-.29.6.8.8,0,0,0,.26.6l14.18,13a6.32,6.32,0,0,1,0,9.28l-14.16,13a.73.73,0,0,0-.26.6.79.79,0,0,0,.28.6l21.24,17.92Z"/><polygon class="cls-1" points="293.49 55.22 275.29 128.57 269.67 128.57 251.18 55.19 256.87 55.12 272.47 117.02 287.72 55.12 293.49 55.22"/><path class="cls-1" d="M321.73,128.83a19.57,19.57,0,0,1-19.56-19.55V74.15a19.56,19.56,0,0,1,39.11,0v35.13A19.57,19.57,0,0,1,321.73,128.83Zm0-69.09a14.43,14.43,0,0,0-14.42,14.41v35.13a14.42,14.42,0,0,0,28.83,0V74.15A14.43,14.43,0,0,0,321.73,59.74Z"/><path class="cls-1" d="M523.82,128.83a19.57,19.57,0,0,1-19.55-19.55V74.15a19.56,19.56,0,0,1,39.11,0v35.13A19.58,19.58,0,0,1,523.82,128.83Zm0-69.09a14.43,14.43,0,0,0-14.41,14.41v35.13a14.42,14.42,0,0,0,28.83,0V74.15A14.43,14.43,0,0,0,523.82,59.74Z"/><polygon class="cls-1" points="388.49 128.72 349.37 128.72 349.37 54.71 354.88 54.71 354.88 123.4 388.49 123.4 388.49 128.72"/><path class="cls-1" d="M417.08,128.46a20.19,20.19,0,0,1-20.17-20.17v-53h5.3v53a14.87,14.87,0,1,0,29.73,0v-53h5.3v53A20.19,20.19,0,0,1,417.08,128.46Z"/><rect class="cls-1" x="490.26" y="55.4" width="5.5" height="73.17"/><polygon class="cls-1" points="481.92 55.18 445.47 55.18 445.47 55.21 445.45 55.21 445.45 60.71 461.13 60.71 461.06 128.49 466.57 128.49 466.63 60.71 481.77 60.71 481.77 59.35 481.92 59.35 481.92 55.18"/><path class="cls-1" d="M202.08,111.74l-8.32-16.81.07,0v0a20.08,20.08,0,0,0,4-1.78l.83-.51.53-.36.23-.16.1-.07,0,0,0,0c.2-.14.4-.3.6-.46l.18-.14.3-.25.16-.13.22-.19.13-.12.46-.43a.47.47,0,0,0,.1-.1l0,0c.21-.21.43-.43.63-.65l.05,0,.07-.08c.17-.19.34-.38.5-.58a1.22,1.22,0,0,0,.15-.17c.2-.24.4-.48.58-.73q.47-.6.87-1.23.21-.31.39-.63c.12-.18.22-.37.33-.56s.23-.41.33-.62.18-.34.26-.52.13-.27.19-.4.15-.34.22-.5.17-.43.25-.65c.15-.38.29-.78.41-1.17,0-.15.09-.3.13-.45l.12-.43c0-.17.09-.35.13-.53s.06-.24.08-.36.07-.35.11-.52.08-.42.1-.63a.8.8,0,0,0,0-.15,5.06,5.06,0,0,0,.06-.53,1.81,1.81,0,0,0,0-.19c0-.21,0-.41.06-.61s0-.42,0-.63,0-.53,0-.78,0-.47,0-.7,0-.39,0-.58,0-.55-.06-.83,0-.37-.06-.56-.07-.55-.12-.83-.07-.47-.12-.69a19.52,19.52,0,0,0-1-3.38c-.08-.22-.17-.45-.26-.66s-.19-.44-.29-.65-.2-.43-.31-.64l-.21-.41a18.13,18.13,0,0,0-1-1.59c-.25-.38-.51-.75-.79-1.11a4.58,4.58,0,0,0-.34-.43l-.36-.43c-.17-.21-.35-.41-.53-.6l-.09-.09c-.16-.18-.33-.36-.5-.52l-.15-.15-.61-.57-.14-.12-.11-.11-.42-.35-.42-.34-.33-.24-.41-.3-.42-.29a5.54,5.54,0,0,0-.51-.33l-.51-.32-.71-.4a8,8,0,0,0-.72-.35s0,0,0,0l-.25-.12-.05,0-.16-.08-.48-.21-.11,0h0a3,3,0,0,0-.38-.15.93.93,0,0,0-.26-.1h0l-.21-.08-.27-.09-.64-.22-.1,0a3.18,3.18,0,0,0-.33-.09l-.1,0-.06,0-.07,0-.16,0-.22-.05-.54-.13a1.83,1.83,0,0,0-.25-.06l-.85-.16a20.82,20.82,0,0,0-2.35-.25h-.17a19.9,19.9,0,0,0-5.45.51L182,56l-.08,0-.19.06-.36.11a3.59,3.59,0,0,0-.35.12.2.2,0,0,0-.11,0l-.12,0-.11,0-.08,0-.09,0-.32.13-.1,0-.28.12-.34.14-.53.25-.07,0-.78.39a20.27,20.27,0,0,0-2,1.22.83.83,0,0,0-.15.11A19.76,19.76,0,0,0,172,62.49l2.67,5.41a14.81,14.81,0,0,1,3.67-4.2,14.59,14.59,0,0,1,2.26-1.47c.2-.11.41-.21.62-.31a5.45,5.45,0,0,1,.55-.25h0a3.68,3.68,0,0,1,.35-.15l.24-.09.18-.07.08,0,.13,0,.23-.08.14,0a14.63,14.63,0,0,1,4.21-.66,14.34,14.34,0,0,1,2.69.2,13.22,13.22,0,0,1,1.68.38,1.36,1.36,0,0,1,.25.07l.62.2c.34.12.68.25,1,.39l.34.16.91.46.42.24q.28.16.57.36A12.68,12.68,0,0,1,197.25,64l0,0c.22.18.43.38.64.58.06.06.14.12.2.19l.21.21.21.22a2.09,2.09,0,0,1,.2.22,2.2,2.2,0,0,1,.2.23c.15.16.29.34.42.5s.28.36.4.54.22.31.33.47.27.42.4.64l.06.09c.11.19.22.39.32.59a1.29,1.29,0,0,1,.09.16c.08.14.15.3.22.45a16.45,16.45,0,0,1,.75,1.91c.13.43.25.87.35,1.33.05.21.09.43.13.65v0c0,.22.07.45.1.68s0,.46.07.7,0,.47,0,.7,0,.47,0,.71,0,.42,0,.64c0,.49-.09,1-.17,1.51a15.07,15.07,0,0,1-11.05,12.11,14.51,14.51,0,0,1-3.8.5,16.47,16.47,0,0,1-1.7-.1h0l-.11,0,1.84,3.71,0,0v.09l.79,1.61h0l16.15,32.77h.08l5.73-.08h.08Zm-14.5-51.26c-.34,0-.69,0-1,0a15.1,15.1,0,0,1,1.78,0Zm3.41.39-.29-.07a6,6,0,0,1,.64.15Zm2.8.94.17.07.16.08.09,0,.07,0C194.12,62,194,61.89,193.79,61.81ZM196.35,92l0,.07-.06,0Z"/></g></g></svg>