<svg xmlns="http://www.w3.org/2000/svg" viewBox="0 0 543 162.39"><defs><style>.cls-1{fill:#1d1d1b;}</style></defs><title>horizontal_positivo</title><g id="Capa_2" data-name="Capa 2"><g id="Capa_1-2" data-name="Capa 1"><path class="cls-1" d="M62.46,159.72a1.24,1.24,0,0,1-.92-.4,1.25,1.25,0,0,1,.08-1.77l32.78-30a8.19,8.19,0,0,0,0-12.06L66.8,90.16a10.67,10.67,0,0,1,0-15.75L94.4,49.13a8.19,8.19,0,0,0,0-12.06L61.62,7a1.25,1.25,0,0,1,1.69-1.85l32.78,30a10.69,10.69,0,0,1,0,15.75L68.49,76.26a8.19,8.19,0,0,0,0,12.06l27.6,25.29a10.69,10.69,0,0,1,0,15.75L82.29,142l-19,17.39A1.26,1.26,0,0,1,62.46,159.72Z"/><path class="cls-1" d="M102.3,159.38l-3.22.85-.27-.21-2.53-2.32L66.14,130.07a11.65,11.65,0,0,1,0-17.18L93.74,87.6a7.22,7.22,0,0,0,0-10.62L66.14,51.69a11.65,11.65,0,0,1,0-17.18L94,9l.91-.84,3.87-3.54a2.22,2.22,0,0,1,3.14.14,3.15,3.15,0,0,1,.24.3,4.51,4.51,0,0,1,.07.73c0,.09,0,.18,0,.26l0,.27,0,.22a2.29,2.29,0,0,1-.07.28c0,.06,0,.11,0,.16s-.07.22-.11.32l0,.11-.09.19-.12.2a2.73,2.73,0,0,1-.35.47,4.91,4.91,0,0,1-.45.46h0l-.47.43-1.1,1L69.14,37.79a7.21,7.21,0,0,0,0,10.62L96.74,73.7a11.65,11.65,0,0,1,0,17.18l-27.6,25.29a7.22,7.22,0,0,0,0,10.62l32.41,29.7.27.24A2.24,2.24,0,0,1,102.3,159.38Z"/><path class="cls-1" d="M160.2,83.43l0,1.79c0,.6,0,1.19-.06,1.79a76.53,76.53,0,0,1-2,14.2,79.19,79.19,0,0,1-11.52,26.2,79.71,79.71,0,0,1-44.27,32c-.67.19-1.34.38-2,.55l-1.2.3A81.16,81.16,0,0,1,57.2,159a79.37,79.37,0,0,1-13.49-5.5,81.38,81.38,0,0,1-23-17.78A80.26,80.26,0,0,1,5.44,110.84a81.75,81.75,0,0,1,51.64-107A80.35,80.35,0,0,1,71.63.65C72.86.46,74.1.39,75.34.28,76,.23,76.58.17,77.2.13L79.06.07a74.26,74.26,0,0,1,7.46.06A81.49,81.49,0,0,1,99,1.77l.18,0a4,4,0,0,1,3,3.2,4.51,4.51,0,0,1,.07.73c0,.09,0,.18,0,.26l0,.27,0,.22a2.29,2.29,0,0,1-.07.28c0,.06,0,.11,0,.16a3,3,0,0,1-.11.32l0,.11-.09.19-.12.2a2.73,2.73,0,0,1-.35.47,4.91,4.91,0,0,1-.45.46h0l-.47.43-1.1,1-1.4-.35-1.26-.28C95.8,9.29,94.92,9.11,94,9a71.57,71.57,0,0,0-8-1,63.51,63.51,0,0,0-6.76-.17l-1.69,0c-.57,0-1.13.06-1.69.1-1.13.08-2.26.12-3.38.28a71.52,71.52,0,0,0-13.27,2.64,74.34,74.34,0,0,0-12.59,5A75.62,75.62,0,0,0,25.12,32.28a74.45,74.45,0,0,0-8.23,10.87,75.69,75.69,0,0,0,7.22,89.53A76.89,76.89,0,0,0,45.59,149.9a75.77,75.77,0,0,0,12.74,5.46,77.71,77.71,0,0,0,38,2.34c1.1-.21,2.19-.45,3.28-.71.67-.16,1.33-.32,2-.5A77.35,77.35,0,0,0,135.85,137a77.56,77.56,0,0,0,20.78-36.11,75.83,75.83,0,0,0,2.22-13.9c.06-.59.07-1.18.09-1.76l.06-1.77c.07-1.18,0-2.35,0-3.53l0-1.77c0-.58-.08-1.17-.12-1.76l-.13-1.76-.06-.88-.11-.88A75.25,75.25,0,0,0,155.69,59,77.78,77.78,0,0,0,133.11,23.5a78.22,78.22,0,0,1,23.3,35.27,76.2,76.2,0,0,1,3.13,13.94l.13.89.08.89.16,1.78c.05.6.12,1.19.15,1.79l.07,1.79C160.16,81,160.25,82.23,160.2,83.43Z"/><path class="cls-1" d="M234.64,128.27l-16.45-13.72a6.29,6.29,0,0,1-.21-9.46l14.16-13a.79.79,0,0,0,0-1.17L218,77.91a6.31,6.31,0,0,1,.18-9.45L234.48,54.7l7.69.12L221.71,72.66a.77.77,0,0,0-.28.59.8.8,0,0,0,.26.6l14.17,13a6.29,6.29,0,0,1,0,9.27l-14.16,13a.79.79,0,0,0,0,1.2L243,128.27Z"/><polygon class="cls-1" points="293.12 54.84 274.92 128.19 269.29 128.19 250.8 54.82 256.5 54.74 272.09 116.65 287.34 54.74 293.12 54.84"/><path class="cls-1" d="M321.35,128.45A19.57,19.57,0,0,1,301.8,108.9V73.77a19.55,19.55,0,1,1,39.1,0V108.9A19.57,19.57,0,0,1,321.35,128.45Zm0-69.09a14.43,14.43,0,0,0-14.41,14.41V108.9a14.41,14.41,0,1,0,28.82,0V73.77A14.43,14.43,0,0,0,321.35,59.36Z"/><path class="cls-1" d="M523.45,128.45A19.57,19.57,0,0,1,503.9,108.9V73.77a19.55,19.55,0,1,1,39.1,0V108.9A19.57,19.57,0,0,1,523.45,128.45Zm0-69.09A14.44,14.44,0,0,0,509,73.77V108.9a14.42,14.42,0,0,0,28.83,0V73.77A14.43,14.43,0,0,0,523.45,59.36Z"/><polygon class="cls-1" points="388.12 128.34 349 128.34 349 54.34 354.5 54.34 354.5 123.02 388.12 123.02 388.12 128.34"/><path class="cls-1" d="M416.7,128.08a20.19,20.19,0,0,1-20.17-20.17v-53h5.3v53a14.87,14.87,0,1,0,29.74,0v-53h5.3v53A20.19,20.19,0,0,1,416.7,128.08Z"/><rect class="cls-1" x="489.88" y="55.02" width="5.5" height="73.17"/><polygon class="cls-1" points="481.54 54.8 445.1 54.8 445.1 54.84 445.07 54.84 445.07 60.34 460.75 60.34 460.69 128.11 466.19 128.12 466.25 60.34 481.39 60.34 481.39 58.97 481.54 58.97 481.54 54.8"/><path class="cls-1" d="M201.7,111.36l-8.31-16.81.06,0h0a20,20,0,0,0,4-1.78c.28-.16.56-.33.83-.51l.53-.36.23-.16.1-.07,0,0,0,0q.3-.21.6-.45L200,91l.31-.25.15-.13.22-.19a.49.49,0,0,0,.13-.12c.16-.13.31-.28.47-.43l.1-.09a0,0,0,0,1,0,0c.22-.21.43-.43.64-.65l0-.05.07-.08c.17-.19.34-.37.51-.57s.1-.11.15-.18c.2-.23.39-.47.58-.72s.59-.81.86-1.23c.14-.21.27-.42.4-.64l.33-.55c.11-.21.22-.41.33-.63s.18-.34.25-.51.13-.27.2-.41l.21-.5c.09-.21.18-.43.26-.64.14-.39.29-.78.41-1.18,0-.15.09-.29.13-.44s.07-.29.11-.43a3.71,3.71,0,0,0,.13-.53,1.53,1.53,0,0,0,.08-.37c0-.17.08-.34.11-.52s.08-.42.11-.63a.78.78,0,0,0,0-.14c0-.19.05-.36.07-.54l0-.19c0-.2,0-.41.05-.61s0-.42,0-.63,0-.52,0-.78v-.7c0-.19,0-.38,0-.58s0-.55-.06-.82,0-.38-.05-.56-.08-.56-.12-.84l-.12-.69a21,21,0,0,0-1-3.38c-.09-.22-.17-.44-.27-.66s-.18-.43-.28-.65l-.31-.64c-.08-.13-.14-.27-.22-.41-.29-.55-.61-1.07-.95-1.59s-.52-.75-.79-1.11l-.35-.43-.35-.43-.54-.6-.08-.09-.5-.52-.15-.14-.61-.57a.86.86,0,0,1-.14-.13l-.11-.1c-.15-.12-.29-.23-.42-.35l-.43-.34-.32-.25-.41-.3-.42-.28-.51-.34-.52-.32c-.23-.13-.46-.27-.71-.39s-.47-.25-.71-.36l-.06,0-.25-.12,0,0-.17-.07c-.15-.08-.31-.14-.48-.21l-.11,0h0a3.12,3.12,0,0,0-.39-.15l-.25-.1h0l-.2-.07-.28-.1c-.21-.08-.42-.15-.64-.21a.19.19,0,0,0-.1,0l-.32-.1-.1,0h-.06l-.07,0-.17-.05-.21,0-.54-.13-.25,0c-.29-.06-.57-.12-.86-.16a18.58,18.58,0,0,0-2.34-.25H188a19.87,19.87,0,0,0-5.44.52c-.32.07-.63.16-1,.24l-.08,0a1.06,1.06,0,0,1-.19.06l-.35.11-.36.12-.11,0-.11,0-.12,0-.07,0-.1,0-.32.12-.09,0-.28.11-.35.15-.53.24-.07,0-.78.39a18.88,18.88,0,0,0-2,1.22l-.15.1a20.29,20.29,0,0,0-3.94,3.63l2.67,5.41a14.79,14.79,0,0,1,3.67-4.2,16.11,16.11,0,0,1,2.25-1.47l.62-.31c.18-.09.37-.17.55-.24l0,0,.36-.14L182,61l.18-.06.07,0,.13,0,.24-.08.13,0a14.77,14.77,0,0,1,4.22-.67,16.12,16.12,0,0,1,2.68.2,14.7,14.7,0,0,1,1.68.38l.25.07.62.2,1,.39.34.16.9.46c.14.08.29.16.42.25s.39.23.57.35a14.14,14.14,0,0,1,1.44,1.07l0,0c.22.19.44.38.65.59l.19.18c.07.07.15.14.22.22s.13.14.21.21l.2.23c.07.07.13.15.2.23s.29.33.42.5l.4.53c.12.16.22.31.33.48s.27.42.39.63a.47.47,0,0,1,.06.09,5.76,5.76,0,0,1,.33.6l.08.16a3.61,3.61,0,0,1,.22.44,13.51,13.51,0,0,1,.75,1.91,12.4,12.4,0,0,1,.35,1.33c.05.22.09.43.13.66,0,0,0,0,0,0a5.46,5.46,0,0,1,.1.69c0,.23.06.46.07.69s0,.47,0,.7,0,.47,0,.71,0,.42,0,.64c0,.5-.1,1-.17,1.51A15.1,15.1,0,0,1,191,89.74a14.57,14.57,0,0,1-3.8.5,16.28,16.28,0,0,1-1.7-.09h-.06l-.11,0,1.84,3.71h0v.08l.79,1.61h0l16.16,32.78h.07l5.73-.09H210ZM187.21,60.1c-.35,0-.69,0-1,0a11.9,11.9,0,0,1,1.79,0Zm3.41.39-.29-.07.64.15Zm2.79.94.17.08.17.08.08,0,.08,0ZM196,91.64l0,.08-.07,0Z"/></g></g></svg>