<svg xmlns="http://www.w3.org/2000/svg" viewBox="0 0 289.9 340.58"><defs><style>.cls-1{fill:#ddb787;}.cls-2{fill:#048175;}.cls-3{fill:#02394c;}.cls-4{fill:#dcb686;}</style></defs><title>logo_revolutio</title><g id="Capa_2" data-name="Capa 2"><g id="Capa_1-2" data-name="Capa 1"><path class="cls-1" d="M116.77,253.85a2,2,0,0,1-1.35-3.46l52.1-47.74a13,13,0,0,0,0-19.16L123.65,143.3a17,17,0,0,1,0-25l43.87-40.19a13,13,0,0,0,0-19.16L115.43,11.19a2,2,0,0,1,2.68-2.94L170.21,56a17,17,0,0,1,0,25L126.34,121.2a13,13,0,0,0,0,19.17l43.87,40.19a17,17,0,0,1,0,25l-21.94,20.09-30.16,27.65A2,2,0,0,1,116.77,253.85Z"/><path class="cls-2" d="M272,126.9l-.1-2.85c-.06-.94-.17-1.88-.25-2.83l-.25-2.83-.14-1.42-.2-1.41a119.2,119.2,0,0,0-5-22.16,124.07,124.07,0,0,0-37-56A127.67,127.67,0,0,1,256.51,72.9a126.77,126.77,0,0,1,8.42,20.86,118.94,118.94,0,0,1,4.53,22l.18,1.39.1,1.41.21,2.8c.06.93.15,1.86.19,2.8l.05,2.8c0,1.87.12,3.75,0,5.62l-.1,2.8c0,.94,0,1.87-.15,2.8a118.5,118.5,0,0,1-3.53,22.1,122.86,122.86,0,0,1-87.53,88.44l-51.5-47.2a11.44,11.44,0,0,1,0-16.87l43.86-40.2a18.52,18.52,0,0,0,0-27.31L127.39,76.94a11.46,11.46,0,0,1,0-16.88l48-44,1.74-1.59.75-.69h0a8.16,8.16,0,0,0,.71-.73,4.58,4.58,0,0,0,.56-.75,3.21,3.21,0,0,0,.19-.31c0-.11.1-.21.14-.31l.08-.18c.07-.16.12-.33.18-.5s.05-.17.07-.26.07-.29.1-.44,0-.24.06-.36,0-.28,0-.42,0-.27,0-.41A6.34,6.34,0,0,0,179.9,8a6.42,6.42,0,0,0-4.85-5.1l-.28-.06A130.53,130.53,0,0,0,155,.2,117.1,117.1,0,0,0,143.15.11l-3,.1c-1,.05-2,.16-3,.23-2,.19-3.94.29-5.9.6a128,128,0,0,0-23.12,5A130.6,130.6,0,0,0,49.65,44.37,129.27,129.27,0,0,0,26.14,176.16a127.47,127.47,0,0,0,24.27,39.49A128.92,128.92,0,0,0,87,243.91a126.22,126.22,0,0,0,21.44,8.74,128.78,128.78,0,0,0,66.55,2l1.91-.47c1.07-.28,2.14-.56,3.21-.87a126.48,126.48,0,0,0,88.68-92.46,122.88,122.88,0,0,0,3.2-22.56c.08-.95.08-1.9.09-2.85l.05-2.85C272.18,130.7,272.05,128.8,272,126.9ZM131.73,251.71a121,121,0,0,1-75.91-40.83,119.93,119.93,0,0,1-22.18-37.55,120.45,120.45,0,0,1,1-85.36,119.61,119.61,0,0,1,57-62.78,117.66,117.66,0,0,1,20-8,115.26,115.26,0,0,1,21.1-4.2c1.78-.25,3.57-.31,5.37-.44.89-.06,1.78-.14,2.68-.17l2.69,0a104.14,104.14,0,0,1,10.75.27,118.42,118.42,0,0,1,12.73,1.62L122.61,54.84a18.53,18.53,0,0,0,0,27.32l43.87,40.19a11.46,11.46,0,0,1,0,16.87l-43.87,40.2a18.52,18.52,0,0,0,0,27.31l47.9,43.9A123.4,123.4,0,0,1,131.73,251.71Z"/><path class="cls-3" d="M5.85,284.41l-.42.19,0,0c-.21.09-.41.2-.61.3a14.62,14.62,0,0,0-1.57,1v0A15.3,15.3,0,0,1,5.85,284.41Z"/><path class="cls-3" d="M6.53,284.13l-.12.05-.08,0Z"/><path class="cls-3" d="M6.73,284.06l-.08,0h.08Z"/><path class="cls-3" d="M7.39,283.83l-.06,0-.28.1L7,284l-.09,0-.09,0L7,284l.14,0a1,1,0,0,1,.18-.06Z"/><path class="cls-3" d="M15.55,283.44l-.31-.06Z"/><path class="cls-3" d="M12.36,283.08h0Z"/><path class="cls-3" d="M12.78,287.24h-.59c-.27,0-.54,0-.8,0A10.75,10.75,0,0,1,12.78,287.24Z"/><path class="cls-3" d="M17.41,284c-.33-.12-.67-.22-1-.31C16.74,283.74,17.08,283.84,17.41,284Z"/><path class="cls-3" d="M17.42,288.46l-.38-.19.13.06.13.06.06,0Z"/><polygon class="cls-3" points="19.07 311.91 19.02 311.87 19.04 311.85 19.07 311.91"/><path class="cls-3" d="M15.16,310.37a11.69,11.69,0,0,1-3,.39v0a11.62,11.62,0,0,0,3-.38Z"/><polygon class="cls-3" points="12.19 313.55 12.19 313.61 12.17 313.56 12.17 313.56 12.19 313.55"/><path class="cls-3" d="M5.85,284.41l-.42.19,0,0c-.21.09-.41.2-.61.3a14.62,14.62,0,0,0-1.57,1v0A15.3,15.3,0,0,1,5.85,284.41Z"/><path class="cls-3" d="M6.53,284.13l-.12.05-.08,0Z"/><path class="cls-3" d="M6.73,284.06l-.08,0h.08Z"/><path class="cls-3" d="M7.39,283.83l-.06,0-.28.1L7,284l-.09,0-.09,0L7,284l.14,0a1,1,0,0,1,.18-.06Z"/><path class="cls-3" d="M15.55,283.44l-.31-.06Z"/><path class="cls-3" d="M12.36,283.08h0Z"/><path class="cls-3" d="M12.78,287.24h-.59c-.27,0-.54,0-.8,0A10.75,10.75,0,0,1,12.78,287.24Z"/><path class="cls-3" d="M17.41,284c-.33-.12-.67-.22-1-.31C16.74,283.74,17.08,283.84,17.41,284Z"/><path class="cls-3" d="M17.42,288.46l-.38-.19.13.06.13.06.06,0Z"/><polygon class="cls-3" points="19.07 311.91 19.02 311.87 19.04 311.85 19.07 311.91"/><path class="cls-3" d="M15.16,310.37a11.69,11.69,0,0,1-3,.39v0a11.62,11.62,0,0,0,3-.38Z"/><polygon class="cls-3" points="12.19 313.55 12.19 313.61 12.17 313.56 12.17 313.56 12.19 313.55"/><path class="cls-4" d="M49.22,340.44,36.37,329.73a4.91,4.91,0,0,1-.16-7.38l11-10.15a.61.61,0,0,0,0-.92L36.2,301.13a4.91,4.91,0,0,1,.15-7.37L49.09,283l6,.09L39.12,297a.68.68,0,0,0-.22.46.62.62,0,0,0,.21.47l11.06,10.16a4.92,4.92,0,0,1,0,7.24L39.12,325.51a.6.6,0,0,0-.2.47.58.58,0,0,0,.22.46l16.57,14Z"/><polygon class="cls-2" points="94.86 283.13 80.65 340.38 76.27 340.38 61.83 283.11 66.28 283.05 78.45 331.37 90.35 283.05 94.86 283.13"/><path class="cls-2" d="M116.9,340.58a15.28,15.28,0,0,1-15.26-15.26V297.9a15.26,15.26,0,1,1,30.52,0v27.42A15.28,15.28,0,0,1,116.9,340.58Zm0-53.93a11.26,11.26,0,0,0-11.25,11.25v27.42a11.25,11.25,0,0,0,22.5,0V297.9A11.27,11.27,0,0,0,116.9,286.65Z"/><path class="cls-2" d="M274.64,340.58a15.28,15.28,0,0,1-15.26-15.26V297.9a15.26,15.26,0,0,1,30.52,0v27.42A15.28,15.28,0,0,1,274.64,340.58Zm0-53.93a11.27,11.27,0,0,0-11.25,11.25v27.42a11.25,11.25,0,1,0,22.5,0V297.9A11.26,11.26,0,0,0,274.64,286.65Z"/><polygon class="cls-2" points="169.01 340.49 138.48 340.49 138.48 282.73 142.77 282.73 142.77 336.34 169.01 336.34 169.01 340.49"/><path class="cls-2" d="M191.32,340.29a15.76,15.76,0,0,1-15.74-15.74V283.17h4.14v41.38a11.61,11.61,0,1,0,23.21,0V283.17h4.13v41.38A15.76,15.76,0,0,1,191.32,340.29Z"/><rect class="cls-2" x="248.44" y="283.26" width="4.29" height="57.11"/><polygon class="cls-2" points="241.93 283.09 213.49 283.09 213.49 283.12 213.47 283.12 213.47 287.42 225.71 287.42 225.66 340.32 229.95 340.32 230 287.42 241.82 287.42 241.82 286.35 241.93 286.35 241.93 283.09"/><path class="cls-3" d="M6.65,284.08l-.24.1.12-.05Z"/><path class="cls-3" d="M7.23,283.88l.1,0-.28.1Z"/><path class="cls-3" d="M7.61,283.76l-.28.09.12,0Z"/><path class="cls-3" d="M7.76,283.72l-.15,0h0Z"/><path class="cls-3" d="M28.1,299c0,.33,0,.66,0,1,0,.09,0,.18,0,.27s0,.25,0,.37,0,.32-.05.48,0,.29-.07.44,0,.18,0,.27a1.08,1.08,0,0,0,0,.19c0,.12-.05.24-.08.37s-.07.31-.11.46l-.18.66c-.07.23-.14.47-.22.7-.16.45-.34.9-.54,1.33l-.18.4-.2.38,0,.07-.2.37-.24.4-.24.4a15.65,15.65,0,0,1-1.7,2.19l.34-.39a.69.69,0,0,0,.11-.13c.16-.19.31-.37.46-.57s.46-.63.67-1c.11-.16.21-.33.31-.49l.26-.44.26-.49.2-.4.15-.31.16-.39a5.38,5.38,0,0,0,.2-.51c.12-.3.23-.61.32-.92,0-.11.07-.23.1-.34l.1-.34c0-.13.07-.28.1-.41s.05-.19.06-.29.06-.27.08-.4a4.63,4.63,0,0,0,.09-.49s0-.08,0-.12,0-.28.05-.41,0-.11,0-.15,0-.32.05-.48l0-.49c0-.21,0-.41,0-.61s0-.37,0-.55,0-.3,0-.45,0-.43-.05-.64,0-.3,0-.44-.05-.43-.09-.65l-.09-.54a16.24,16.24,0,0,0-.76-2.64,4.55,4.55,0,0,0-.21-.51c-.07-.18-.14-.34-.22-.51l-.24-.5-.17-.32a14.08,14.08,0,0,0-.75-1.24c-.19-.3-.4-.59-.61-.87-.08-.11-.18-.22-.27-.33s-.19-.23-.28-.34l-.41-.47-.07-.07-.39-.4-.12-.12-.48-.44-.1-.1-.09-.08-.33-.28-.33-.26-.25-.19-.32-.23-.33-.23c-.13-.09-.26-.18-.4-.26l-.4-.25-.55-.31-.56-.28-.05,0a1.11,1.11,0,0,0-.19-.09l0,0-.12-.06-.38-.16-.08,0h0a1.88,1.88,0,0,0-.3-.12.7.7,0,0,0-.2-.08h0l-.16-.06-.22-.07-.5-.17-.07,0-.26-.08-.07,0h-.05l-.06,0-.12,0-.17,0-.43-.1-.19-.05c-.22,0-.44-.09-.67-.12a16,16,0,0,0-1.83-.2H12.8a15.86,15.86,0,0,0-4.24.4l-.74.19.31-.09h0l.09,0,.4-.1.14,0h0l.22,0h0l.61-.12.63-.09.48,0,.47,0,.4,0h1.13l.43,0h.12l.14,0c.22,0,.44,0,.65.06l.17,0,.55.08.1,0,.61.12.42.1.42.11c.35.09.69.19,1,.31s.9.34,1.35.53l.32.16.5.25.48.27c.16.08.32.18.48.28l.15.1.22.14.21.14h0l.33.23.16.12.17.13.42.33c.18.14.35.29.52.44l.4.37.47.47.3.31c.15.16.29.32.43.49s.19.23.29.35l.33.43.35.49c.1.14.19.28.28.42l.25.4.07.13c.07.12.15.24.21.37l.06.1c.08.14.15.29.23.44l.18.38.12.26c.06.13.12.26.17.39s.09.22.13.32a3.42,3.42,0,0,1,.13.34c.11.3.22.61.3.92a5.26,5.26,0,0,1,.15.53c0,.13.07.27.1.41s0,.23.07.34.06.29.09.44.06.36.09.55l.06.5c0,.19,0,.38.05.58C28.08,298.21,28.1,298.59,28.1,299Z"/><path class="cls-2" d="M23.51,327.24,17,314.12l.05,0h0a15.21,15.21,0,0,0,3.12-1.38l.64-.4.42-.28.18-.13.08-.05,0,0v0a5.32,5.32,0,0,0,.47-.36l.14-.11.24-.19.12-.11.18-.15.1-.09.36-.34.08-.07h0l.49-.51,0,0,.05-.06c.14-.15.27-.29.4-.45a.69.69,0,0,0,.11-.13c.16-.19.31-.37.46-.57s.46-.63.67-1c.11-.16.21-.33.31-.49l.26-.44.26-.49.2-.4.15-.31.16-.39a5.38,5.38,0,0,0,.2-.51c.12-.3.23-.61.32-.92,0-.11.07-.23.1-.34l.1-.34c0-.13.07-.28.1-.41s.05-.19.06-.29.06-.27.08-.4a4.63,4.63,0,0,0,.09-.49s0-.08,0-.12,0-.28.05-.41,0-.11,0-.15,0-.32.05-.48l0-.49c0-.21,0-.41,0-.61s0-.37,0-.55,0-.3,0-.45,0-.43-.05-.64,0-.3,0-.44-.05-.43-.09-.65l-.09-.54a16.24,16.24,0,0,0-.76-2.64,4.55,4.55,0,0,0-.21-.51c-.07-.18-.14-.34-.22-.51l-.24-.5-.17-.32a14.08,14.08,0,0,0-.75-1.24c-.19-.3-.4-.59-.61-.87-.08-.11-.18-.22-.27-.33s-.19-.23-.28-.34l-.41-.47-.07-.07-.39-.4-.12-.12-.48-.44-.1-.1-.09-.08-.33-.28-.33-.26-.25-.19-.32-.23-.33-.23c-.13-.09-.26-.18-.4-.26l-.4-.25-.55-.31-.56-.28-.05,0a1.11,1.11,0,0,0-.19-.09l0,0-.12-.06-.38-.16-.08,0h0a1.88,1.88,0,0,0-.3-.12.7.7,0,0,0-.2-.08h0l-.16-.06-.22-.07-.5-.17-.07,0-.26-.08-.07,0h-.05l-.06,0-.12,0-.17,0-.43-.1-.19-.05c-.22,0-.44-.09-.67-.12a16,16,0,0,0-1.83-.2H12.8a15.86,15.86,0,0,0-4.24.4l-.74.19-.06,0-.15,0-.28.09-.28.1L7,284l-.09,0-.09,0-.06,0-.08,0-.24.1-.08,0-.22.09-.26.11-.42.19,0,0c-.21.09-.41.2-.61.3a14.62,14.62,0,0,0-1.57,1l-.12.08A15.63,15.63,0,0,0,0,288.8L2.09,293a11.84,11.84,0,0,1,4.62-4.42l.48-.25.43-.19h0l.28-.11.19-.07.14-.05.06,0,.1,0,.18-.06a.45.45,0,0,1,.11,0,11.14,11.14,0,0,1,3.29-.52,12.37,12.37,0,0,1,2.1.15,13,13,0,0,1,1.3.3l.2.05.49.16.79.31.26.12.71.36.33.19c.15.09.3.18.44.28a9.27,9.27,0,0,1,1.12.83l0,0c.17.14.34.29.5.45l.15.15.17.16.16.17.16.18a.93.93,0,0,1,.16.18l.33.39c.11.14.21.27.31.42l.26.37c.11.16.21.32.31.49l0,.07c.09.15.18.31.26.47l.06.12a3.78,3.78,0,0,1,.17.35,11.26,11.26,0,0,1,.59,1.49c.1.34.2.68.27,1,0,.17.07.34.1.51,0,0,0,0,0,0a4.51,4.51,0,0,1,.08.53c0,.18,0,.36.06.54s0,.37,0,.55a5.23,5.23,0,0,1,0,.56c0,.16,0,.32,0,.49,0,.39-.08.79-.14,1.19a11.69,11.69,0,0,1-12.91,9.76h0l-.08,0,1.43,2.9h0v.06l.62,1.26h0l12.61,25.58h.06l4.48-.07H30Zm-11.32-40c-.27,0-.54,0-.8,0a10.75,10.75,0,0,1,1.39,0Zm2.67.31-.23-.06a4.05,4.05,0,0,1,.5.12Zm2.18.73.13.06.13.06.06,0,.06,0Zm2,23.58,0,.06-.05,0Z"/><path class="cls-3" d="M6.73,284.06l-.08,0h.08Z"/><path class="cls-3" d="M7.23,283.88l-.18.07L7,284l0,0,.14,0Z"/><path class="cls-3" d="M7.33,283.85l.12,0-.22.07Z"/><path class="cls-3" d="M20.05,285.15v0l-.48-.27Z"/></g></g></svg>